<?xml version="1.0" standalone="no"?>
<!DOCTYPE svg PUBLIC "-//W3C//DTD SVG 20010904//EN"
 "http://www.w3.org/TR/2001/REC-SVG-20010904/DTD/svg10.dtd">
<svg version="1.0" xmlns="http://www.w3.org/2000/svg"
 width="1000.000000pt" height="745.000000pt" viewBox="0 0 1000.000000 745.000000"
 preserveAspectRatio="xMidYMid meet">

<g transform="translate(0.000000,745.000000) scale(0.100000,-0.100000)"
fill="#000000" stroke="none">
<path d="M2320 7021 c-58 -12 -107 -40 -150 -87 -40 -44 -41 -44 -50 -20 -6
17 -19 26 -47 31 -21 4 -64 17 -96 30 l-58 24 21 -29 c11 -16 47 -42 80 -57
32 -15 58 -32 56 -38 -5 -19 -91 -44 -151 -44 -38 0 -86 8 -130 23 -38 14 -71
23 -73 22 -1 -2 24 -15 55 -31 85 -42 196 -47 281 -12 50 20 60 21 53 8 -5 -9
-11 -32 -12 -51 -6 -58 21 -43 41 23 25 80 35 90 87 84 23 -2 60 -14 82 -25
33 -18 41 -19 51 -7 9 11 5 17 -22 31 -18 10 -55 23 -83 29 l-50 12 50 25 c60
30 110 39 159 28 31 -7 36 -5 36 10 0 28 -52 36 -130 21z"/>
<path d="M7214 6991 c-63 -10 -94 -26 -94 -49 0 -57 105 -149 307 -270 174
-104 407 -221 454 -229 53 -8 138 20 186 62 26 22 49 55 64 90 l22 54 57 -6
c38 -4 60 -2 64 6 7 11 -45 17 -101 12 -20 -2 -23 3 -23 39 0 69 -65 171 -130
205 -82 43 -675 106 -806 86z"/>
<path d="M2710 6711 c0 -19 -53 -72 -91 -91 -21 -11 -52 -20 -68 -20 -38 0
-135 36 -151 55 -7 8 -17 15 -23 15 -6 0 4 -16 23 -35 99 -102 268 -115 315
-25 17 33 20 110 5 110 -5 0 -10 -4 -10 -9z"/>
<path d="M7058 6603 c-16 -3 -28 -11 -28 -19 0 -8 -9 -14 -21 -14 -17 0 -20
-4 -15 -24 3 -13 -1 -37 -10 -55 -57 -114 16 -258 140 -276 155 -24 271 130
207 272 -22 48 -88 100 -135 107 -62 10 -112 13 -138 9z"/>
<path d="M3273 6575 c-133 -30 -239 -111 -291 -223 -22 -47 -27 -71 -27 -138
0 -146 59 -214 309 -356 72 -41 152 -95 181 -123 l53 -50 11 55 c6 32 37 102
71 165 120 217 143 273 148 353 4 66 2 78 -27 137 -74 150 -245 222 -428 180z"/>
<path d="M8302 6443 c2 -30 7 -38 23 -38 16 0 21 8 23 38 3 34 1 37 -23 37
-24 0 -26 -3 -23 -37z"/>
<path d="M5775 6319 c-24 -106 -22 -281 5 -384 23 -91 64 -183 111 -252 43
-63 144 -168 195 -203 40 -28 40 -28 53 -8 12 19 10 24 -21 47 -148 115 -245
259 -288 428 -23 88 -27 255 -8 347 10 53 9 59 -9 78 l-21 20 -17 -73z"/>
<path d="M6866 6321 c-3 -4 -17 -6 -31 -3 -20 3 -25 0 -25 -16 0 -12 -8 -23
-19 -27 -61 -19 -111 -96 -111 -170 0 -116 77 -195 190 -195 127 0 222 119
189 238 -15 54 -88 133 -158 169 -28 15 -28 15 -35 4z"/>
<path d="M7280 6234 c-19 -8 -47 -27 -62 -41 -16 -15 -28 -23 -28 -18 0 23
-48 -48 -54 -80 -6 -32 -4 -37 13 -42 12 -3 21 -13 21 -23 0 -30 27 -84 57
-112 37 -35 73 -48 135 -48 157 0 247 190 145 307 -59 67 -151 90 -227 57z"/>
<path d="M4306 6050 c-2 -8 -4 -24 -3 -36 1 -14 -12 -32 -42 -55 -57 -44 -96
-115 -87 -162 10 -55 60 -124 107 -148 84 -42 222 -6 280 74 77 106 55 233
-48 279 -38 17 -58 19 -110 14 -35 -4 -63 -3 -63 2 0 4 -6 17 -14 28 -12 16
-15 16 -20 4z"/>
<path d="M3965 5838 c-16 -6 -39 -17 -50 -24 -25 -18 -35 -18 -35 1 0 8 -7 15
-16 15 -13 0 -15 -7 -12 -32 4 -25 -1 -41 -22 -68 -53 -67 -63 -158 -26 -215
24 -37 114 -85 159 -85 78 0 170 64 208 145 38 82 15 191 -52 244 -36 28 -107
37 -154 19z"/>
<path d="M8276 5766 c-17 -33 -17 -36 -1 -64 16 -27 20 -28 46 -18 16 6 29 14
29 18 0 14 -19 53 -37 76 l-18 22 -19 -34z"/>
<path d="M7011 5770 c-178 -38 -325 -194 -350 -372 -38 -276 166 -517 439
-518 70 0 159 23 222 57 69 37 153 130 191 210 30 64 32 74 32 183 0 108 -2
119 -32 182 -53 113 -149 200 -261 239 -67 23 -179 32 -241 19z m270 -67 c78
-38 161 -119 195 -189 99 -202 10 -456 -195 -557 -62 -30 -72 -32 -176 -32
-103 0 -114 2 -176 31 -117 56 -194 145 -224 259 -58 222 53 430 270 508 38
13 73 17 146 14 84 -2 104 -6 160 -34z"/>
<path d="M7070 5610 c0 -5 5 -10 10 -10 6 0 10 5 10 10 0 6 -4 10 -10 10 -5 0
-10 -4 -10 -10z"/>
<path d="M7020 5600 c0 -5 5 -10 10 -10 6 0 10 5 10 10 0 6 -4 10 -10 10 -5 0
-10 -4 -10 -10z"/>
<path d="M6975 5591 c-3 -5 -1 -12 5 -16 5 -3 10 1 10 9 0 18 -6 21 -15 7z"/>
<path d="M7217 5593 c-4 -3 -7 -11 -7 -17 0 -6 5 -5 12 2 6 6 9 14 7 17 -3 3
-9 2 -12 -2z"/>
<path d="M6930 5560 c0 -5 5 -10 10 -10 6 0 10 5 10 10 0 6 -4 10 -10 10 -5 0
-10 -4 -10 -10z"/>
<path d="M7095 5561 c-3 -5 -1 -12 5 -16 5 -3 10 1 10 9 0 18 -6 21 -15 7z"/>
<path d="M7255 5560 c-3 -5 -1 -10 4 -10 6 0 11 5 11 10 0 6 -2 10 -4 10 -3 0
-8 -4 -11 -10z"/>
<path d="M7150 5550 c0 -5 5 -10 10 -10 6 0 10 5 10 10 0 6 -4 10 -10 10 -5 0
-10 -4 -10 -10z"/>
<path d="M6895 5530 c3 -5 8 -10 11 -10 2 0 4 5 4 10 0 6 -5 10 -11 10 -5 0
-7 -4 -4 -10z"/>
<path d="M6980 5530 c0 -5 5 -10 11 -10 5 0 7 5 4 10 -3 6 -8 10 -11 10 -2 0
-4 -4 -4 -10z"/>
<path d="M7210 5530 c0 -5 5 -10 11 -10 5 0 7 5 4 10 -3 6 -8 10 -11 10 -2 0
-4 -4 -4 -10z"/>
<path d="M7290 5530 c0 -5 5 -10 10 -10 6 0 10 5 10 10 0 6 -4 10 -10 10 -5 0
-10 -4 -10 -10z"/>
<path d="M6865 5490 c3 -5 8 -10 11 -10 2 0 4 5 4 10 0 6 -5 10 -11 10 -5 0
-7 -4 -4 -10z"/>
<path d="M6935 5490 c3 -5 8 -10 11 -10 2 0 4 5 4 10 0 6 -5 10 -11 10 -5 0
-7 -4 -4 -10z"/>
<path d="M7255 5490 c-3 -5 -1 -10 4 -10 6 0 11 5 11 10 0 6 -2 10 -4 10 -3 0
-8 -4 -11 -10z"/>
<path d="M7320 5490 c0 -5 5 -10 10 -10 6 0 10 5 10 10 0 6 -4 10 -10 10 -5 0
-10 -4 -10 -10z"/>
<path d="M6840 5450 c0 -5 5 -10 11 -10 5 0 7 5 4 10 -3 6 -8 10 -11 10 -2 0
-4 -4 -4 -10z"/>
<path d="M7350 5450 c0 -5 5 -10 10 -10 6 0 10 5 10 10 0 6 -4 10 -10 10 -5 0
-10 -4 -10 -10z"/>
<path d="M6900 5440 c0 -5 5 -10 10 -10 6 0 10 5 10 10 0 6 -4 10 -10 10 -5 0
-10 -4 -10 -10z"/>
<path d="M7290 5439 c0 -5 5 -7 10 -4 6 3 10 8 10 11 0 2 -4 4 -10 4 -5 0 -10
-5 -10 -11z"/>
<path d="M7365 5400 c4 -6 11 -8 16 -5 14 9 11 15 -7 15 -8 0 -12 -5 -9 -10z"/>
<path d="M6875 5390 c3 -5 11 -10 16 -10 6 0 7 5 4 10 -3 6 -11 10 -16 10 -6
0 -7 -4 -4 -10z"/>
<path d="M7310 5390 c0 -5 5 -10 10 -10 6 0 10 5 10 10 0 6 -4 10 -10 10 -5 0
-10 -4 -10 -10z"/>
<path d="M6818 5353 c7 -3 16 -2 19 1 4 3 -2 6 -13 5 -11 0 -14 -3 -6 -6z"/>
<path d="M7378 5353 c7 -3 16 -2 19 1 4 3 -2 6 -13 5 -11 0 -14 -3 -6 -6z"/>
<path d="M6870 5329 c0 -5 5 -7 10 -4 6 3 10 8 10 11 0 2 -4 4 -10 4 -5 0 -10
-5 -10 -11z"/>
<path d="M7320 5330 c0 -5 5 -10 10 -10 6 0 10 5 10 10 0 6 -4 10 -10 10 -5 0
-10 -4 -10 -10z"/>
<path d="M6818 5303 c7 -3 16 -2 19 1 4 3 -2 6 -13 5 -11 0 -14 -3 -6 -6z"/>
<path d="M7378 5303 c7 -3 16 -2 19 1 4 3 -2 6 -13 5 -11 0 -14 -3 -6 -6z"/>
<path d="M6875 5270 c4 -6 11 -8 16 -5 14 9 11 15 -7 15 -8 0 -12 -5 -9 -10z"/>
<path d="M7315 5270 c3 -5 8 -10 11 -10 2 0 4 5 4 10 0 6 -5 10 -11 10 -5 0
-7 -4 -4 -10z"/>
<path d="M6825 5260 c-3 -5 -1 -10 4 -10 6 0 11 5 11 10 0 6 -2 10 -4 10 -3 0
-8 -4 -11 -10z"/>
<path d="M7365 5260 c-3 -5 1 -10 10 -10 9 0 13 5 10 10 -3 6 -8 10 -10 10 -2
0 -7 -4 -10 -10z"/>
<path d="M6895 5220 c-3 -5 1 -10 10 -10 9 0 13 5 10 10 -3 6 -8 10 -10 10 -2
0 -7 -4 -10 -10z"/>
<path d="M7290 5220 c0 -5 5 -10 11 -10 5 0 7 5 4 10 -3 6 -8 10 -11 10 -2 0
-4 -4 -4 -10z"/>
<path d="M6840 5209 c0 -5 5 -7 10 -4 6 3 10 8 10 11 0 2 -4 4 -10 4 -5 0 -10
-5 -10 -11z"/>
<path d="M7345 5210 c3 -5 10 -10 16 -10 5 0 9 5 9 10 0 6 -7 10 -16 10 -8 0
-12 -4 -9 -10z"/>
<path d="M6865 5170 c-3 -5 -1 -10 4 -10 6 0 11 5 11 10 0 6 -2 10 -4 10 -3 0
-8 -4 -11 -10z"/>
<path d="M6935 5170 c-3 -5 -1 -10 4 -10 6 0 11 5 11 10 0 6 -2 10 -4 10 -3 0
-8 -4 -11 -10z"/>
<path d="M7255 5170 c3 -5 8 -10 11 -10 2 0 4 5 4 10 0 6 -5 10 -11 10 -5 0
-7 -4 -4 -10z"/>
<path d="M7325 5170 c3 -5 8 -10 11 -10 2 0 4 5 4 10 0 6 -5 10 -11 10 -5 0
-7 -4 -4 -10z"/>
<path d="M6987 5143 c-4 -3 -7 -11 -7 -17 0 -6 5 -5 12 2 6 6 9 14 7 17 -3 3
-9 2 -12 -2z"/>
<path d="M7210 5134 c0 -8 5 -12 10 -9 6 4 8 11 5 16 -9 14 -15 11 -15 -7z"/>
<path d="M6895 5130 c-3 -5 -1 -10 4 -10 6 0 11 5 11 10 0 6 -2 10 -4 10 -3 0
-8 -4 -11 -10z"/>
<path d="M7295 5130 c3 -5 8 -10 11 -10 2 0 4 5 4 10 0 6 -5 10 -11 10 -5 0
-7 -4 -4 -10z"/>
<path d="M7041 5114 c0 -11 3 -14 6 -6 3 7 2 16 -1 19 -3 4 -6 -2 -5 -13z"/>
<path d="M7095 5111 c-3 -5 -1 -12 5 -16 5 -3 10 1 10 9 0 18 -6 21 -15 7z"/>
<path d="M7155 5110 c3 -5 8 -10 11 -10 2 0 4 5 4 10 0 6 -5 10 -11 10 -5 0
-7 -4 -4 -10z"/>
<path d="M6930 5100 c0 -5 5 -10 10 -10 6 0 10 5 10 10 0 6 -4 10 -10 10 -5 0
-10 -4 -10 -10z"/>
<path d="M7255 5100 c3 -5 8 -10 11 -10 2 0 4 5 4 10 0 6 -5 10 -11 10 -5 0
-7 -4 -4 -10z"/>
<path d="M6975 5080 c-3 -5 -1 -10 4 -10 6 0 11 5 11 10 0 6 -2 10 -4 10 -3 0
-8 -4 -11 -10z"/>
<path d="M7210 5080 c0 -5 5 -10 11 -10 5 0 7 5 4 10 -3 6 -8 10 -11 10 -2 0
-4 -4 -4 -10z"/>
<path d="M7020 5060 c0 -5 5 -10 10 -10 6 0 10 5 10 10 0 6 -4 10 -10 10 -5 0
-10 -4 -10 -10z"/>
<path d="M7070 5049 c0 -5 5 -7 10 -4 6 3 10 8 10 11 0 2 -4 4 -10 4 -5 0 -10
-5 -10 -11z"/>
<path d="M7120 5049 c0 -5 5 -7 10 -4 6 3 10 8 10 11 0 2 -4 4 -10 4 -5 0 -10
-5 -10 -11z"/>
<path d="M8493 5703 c-57 -5 -57 -30 -2 -90 25 -27 67 -98 106 -178 68 -141
84 -208 69 -290 -8 -42 -63 -107 -106 -125 -33 -14 -38 -31 -15 -50 23 -19 78
5 120 52 38 42 95 150 95 181 0 10 -22 47 -49 82 -28 36 -68 102 -91 147 -33
68 -42 97 -46 158 -7 98 -12 120 -27 118 -6 -1 -31 -3 -54 -5z"/>
<path d="M8233 5573 c-8 -36 -8 -50 1 -55 13 -8 13 -8 19 55 2 26 2 47 -2 47
-4 0 -11 -21 -18 -47z"/>
<path d="M4557 5488 c-144 -144 -182 -211 -182 -328 0 -59 5 -85 24 -120 33
-64 86 -125 150 -176 l56 -44 37 37 c21 20 38 40 38 44 0 4 -13 10 -29 14 -74
16 -153 107 -166 190 -11 64 11 188 44 253 16 31 57 95 90 141 56 77 69 101
56 101 -2 0 -55 -51 -118 -112z"/>
<path d="M3050 5511 c0 -15 34 -49 57 -55 14 -5 30 1 50 18 35 30 24 46 -13
17 -28 -22 -56 -16 -68 14 -6 16 -26 21 -26 6z"/>
<path d="M6436 5015 c-10 -38 -74 -103 -129 -132 -51 -25 -121 -34 -169 -20
-34 9 -35 0 -5 -44 39 -59 113 -47 226 36 68 50 101 98 101 149 0 41 -15 48
-24 11z"/>
<path d="M7587 4964 c-4 -4 -7 -30 -7 -57 0 -43 2 -48 18 -42 9 3 41 14 70 23
42 13 52 20 52 38 0 17 -8 22 -42 28 -24 3 -52 8 -63 11 -11 4 -24 3 -28 -1z"/>
<path d="M6026 4906 c-10 -41 -82 -113 -132 -132 -30 -11 -62 -15 -101 -12
l-58 5 35 -15 c20 -9 77 -17 135 -20 88 -4 103 -2 124 15 22 18 24 28 24 86
-2 77 -16 116 -27 73z"/>
<path d="M6732 4719 c-6 -86 -106 -313 -173 -394 -173 -210 -457 -265 -704
-137 -84 44 -244 197 -294 282 -41 69 -31 29 16 -70 53 -109 161 -215 276
-271 182 -87 367 -87 546 2 207 102 350 332 338 547 -2 37 -4 55 -5 41z"/>
<path d="M6610 4670 c-18 -43 -82 -97 -131 -110 -48 -13 -105 -3 -171 31 -22
11 -42 19 -44 16 -2 -2 20 -27 49 -54 121 -114 236 -131 282 -42 14 26 39 179
31 187 -2 1 -9 -11 -16 -28z"/>
<path d="M2960 4564 c-11 -51 -20 -65 -74 -119 -61 -61 -109 -85 -171 -85
l-28 0 24 -26 c13 -14 32 -30 42 -35 44 -24 167 74 218 172 24 48 31 121 12
140 -8 8 -14 -3 -23 -47z"/>
<path d="M5164 4521 c-64 -16 -129 -56 -191 -116 -34 -35 -63 -60 -63 -56 -1
21 -30 42 -50 36 -22 -7 -22 -7 6 -36 l27 -28 -32 12 c-27 10 -33 9 -41 -3 -8
-12 -2 -16 30 -18 22 -2 40 -6 40 -10 0 -4 -10 -35 -21 -67 -72 -201 31 -420
216 -457 65 -13 160 -2 338 38 115 26 213 33 257 19 24 -7 24 -7 8 12 -30 33
-56 104 -98 272 -23 90 -51 189 -62 219 -42 112 -141 182 -268 188 -36 2 -79
0 -96 -5z"/>
<path d="M8666 4465 c-5 -11 -16 -38 -26 -60 -23 -55 -64 -100 -117 -132 -57
-33 -169 -43 -224 -20 l-36 15 -6 -68 c-7 -80 -43 -190 -81 -246 l-26 -39 42
-13 c68 -21 185 -11 251 22 105 51 189 169 222 311 17 72 18 267 1 230z"/>
<path d="M5695 4422 c66 -122 149 -155 222 -88 35 31 81 96 69 96 -3 0 -20 -9
-39 -20 -54 -32 -116 -36 -173 -11 -27 12 -62 34 -78 49 l-29 27 28 -53z"/>
<path d="M2600 4375 c-1 -79 -94 -189 -171 -201 -71 -12 -20 -24 55 -13 105
15 176 51 176 90 0 25 -29 110 -46 134 -13 18 -14 18 -14 -10z"/>
<path d="M3327 4270 c-11 -237 -59 -366 -180 -484 -147 -144 -335 -196 -530
-146 -92 23 -248 105 -329 173 -81 67 -59 25 37 -69 79 -78 174 -132 280 -159
77 -19 224 -19 300 0 285 74 481 342 462 634 -3 47 -12 106 -19 131 l-15 45
-6 -125z"/>
<path d="M4306 4367 c-12 -12 -38 -52 -57 -87 -20 -39 -66 -98 -114 -147 -66
-68 -88 -84 -127 -95 -50 -13 -53 -15 -40 -34 5 -9 22 -9 65 0 43 9 64 19 83
41 18 21 22 24 15 8 -16 -31 -14 -39 13 -51 19 -8 26 -8 30 1 3 8 5 7 5 -3 2
-22 40 -69 42 -50 0 8 7 -1 14 -20 16 -42 18 -61 5 -40 -8 12 -10 10 -10 -11
0 -46 -29 -126 -56 -153 -26 -25 -64 -33 -98 -20 -8 3 -33 34 -55 68 -27 41
-53 68 -76 79 -43 21 -42 21 -49 2 -4 -10 6 -20 30 -30 62 -26 102 -93 103
-172 1 -36 4 -43 20 -43 34 0 75 20 109 53 43 41 62 78 71 136 6 43 8 46 38
49 l31 3 -24 72 c-18 52 -25 93 -25 150 0 90 11 118 81 206 55 67 60 85 31
101 -27 14 -29 13 -55 -13z m-89 -379 c-3 -7 -5 -2 -5 12 0 14 2 19 5 13 2 -7
2 -19 0 -25z"/>
<path d="M6380 4371 c0 -6 -17 -30 -37 -53 -70 -77 -157 -96 -266 -59 -49 17
-57 18 -57 5 0 -27 20 -53 52 -70 62 -32 240 2 299 57 24 22 29 35 29 72 0 25
-4 49 -10 52 -5 3 -10 1 -10 -4z"/>
<path d="M1182 4257 c18 -243 73 -368 189 -432 46 -25 67 -30 144 -33 64 -2
110 2 160 15 l70 18 -2 35 c-2 19 -5 45 -8 57 l-5 22 -35 -24 c-20 -13 -58
-28 -85 -34 -86 -19 -152 5 -242 88 -67 61 -106 133 -148 271 -18 58 -35 108
-39 112 -3 4 -3 -39 1 -95z"/>
<path d="M3221 4288 c-36 -120 -141 -172 -283 -139 -51 12 -39 -3 31 -38 66
-34 165 -57 203 -48 70 18 94 78 77 192 -6 39 -12 71 -13 73 -2 1 -8 -17 -15
-40z"/>
<path d="M7450 4006 c-15 -46 -74 -113 -124 -138 -28 -14 -68 -23 -126 -27
l-85 -6 45 -43 c25 -23 79 -59 119 -80 70 -35 81 -37 165 -37 78 1 99 5 146
27 30 15 73 43 94 63 l40 36 -45 26 c-71 42 -126 91 -173 154 l-44 59 -12 -34z"/>
<path d="M3076 3931 c-5 -31 -19 -55 -53 -92 -56 -60 -125 -85 -210 -75 -59 7
-60 3 -20 -41 32 -36 98 -31 183 12 76 38 101 57 127 95 22 32 22 92 -1 121
l-19 22 -7 -42z"/>
<path d="M6195 3959 c-4 -5 -3 -13 0 -19 3 -5 0 -10 -7 -10 -24 0 -90 -63
-109 -104 -66 -145 68 -307 220 -266 80 21 151 110 151 190 0 67 -31 114 -120
183 -42 33 -122 48 -135 26z"/>
<path d="M2664 3879 c-57 -63 -160 -79 -249 -40 l-50 22 30 -31 c78 -82 169
-112 223 -74 24 16 55 72 66 117 8 33 5 33 -20 6z"/>
<path d="M6665 3881 c-22 -10 -49 -28 -59 -40 -11 -11 -24 -21 -30 -21 -18 0
-58 -48 -51 -60 4 -6 1 -17 -5 -25 -13 -16 -5 -35 14 -35 8 0 16 -17 20 -40 7
-45 52 -102 100 -127 64 -33 178 -11 228 44 43 47 60 140 37 200 -24 64 -109
123 -179 123 -19 0 -53 -9 -75 -19z"/>
<path d="M3677 3750 c-14 -16 -41 -56 -61 -89 -39 -64 -64 -84 -114 -94 -43
-9 -119 8 -154 34 -26 18 -28 18 -28 2 0 -23 32 -72 62 -95 13 -10 17 -18 10
-18 -7 0 -10 -4 -7 -10 3 -5 24 -10 45 -10 46 0 96 -37 105 -79 7 -32 -18
-112 -47 -154 -36 -51 -123 -81 -198 -67 l-39 7 19 -28 c39 -54 149 -74 233
-40 23 9 27 16 27 48 0 82 46 182 100 218 l28 19 -22 40 c-43 83 -21 212 55
307 36 45 23 54 -14 9z"/>
<path d="M2024 3638 c-176 -187 -262 -447 -233 -704 6 -53 19 -126 31 -163 47
-154 167 -331 293 -434 71 -57 236 -141 320 -162 170 -43 349 -38 509 16 90
30 204 88 260 133 34 28 34 28 -55 127 -109 122 -196 222 -629 724 -227 264
-420 488 -430 498 -16 17 -19 15 -66 -35z"/>
<path d="M5767 3676 c-7 -7 -20 -15 -29 -19 -20 -7 -23 -22 -8 -32 6 -4 3 -20
-9 -43 -29 -60 -33 -90 -17 -145 65 -220 376 -174 376 55 0 114 -82 182 -228
191 -48 3 -77 0 -85 -7z"/>
<path d="M4583 3659 c-37 -11 -39 -18 -17 -60 12 -25 20 -30 37 -24 12 3 50 9
84 12 71 7 133 -12 183 -54 l30 -25 -73 -35 c-102 -51 -221 -171 -270 -273
-50 -102 -67 -177 -67 -288 0 -170 68 -324 193 -438 108 -97 243 -150 392
-153 169 -4 319 52 443 165 129 118 196 256 209 433 10 150 -44 303 -151 428
-47 54 -155 126 -242 160 -65 26 -79 28 -226 28 l-156 1 -47 43 c-65 60 -124
84 -215 87 -41 2 -90 -1 -107 -7z"/>
<path d="M4007 3538 c-24 -63 -69 -123 -113 -150 -35 -23 -35 -23 -31 -81 17
-202 220 -241 319 -61 37 66 35 83 -3 39 -41 -46 -78 -65 -127 -65 -53 0 -83
33 -90 100 -4 43 1 60 32 124 26 52 36 86 34 108 l-3 33 -18 -47z"/>
<path d="M7430 3545 c0 -18 5 -25 19 -25 28 0 81 -48 98 -88 8 -19 13 -36 11
-38 -2 -2 -24 4 -48 13 -25 8 -75 15 -113 16 -55 0 -78 -5 -123 -29 -47 -24
-63 -40 -95 -92 -71 -119 -75 -230 -11 -365 33 -71 139 -215 174 -236 34 -21
94 -30 138 -20 28 6 46 5 67 -6 38 -20 120 -18 168 4 64 29 164 110 211 170
49 62 84 156 84 226 0 88 -48 197 -110 252 -58 51 -109 67 -212 67 l-96 0 -6
38 c-13 82 -156 186 -156 113z"/>
<path d="M3754 2667 c-126 -42 -225 -123 -271 -223 -53 -117 -14 -267 105
-396 162 -175 386 -234 477 -127 23 28 25 39 25 122 0 87 3 98 42 187 38 85
43 103 42 170 0 61 -5 85 -27 126 -30 58 -89 110 -150 131 -59 21 -193 26
-243 10z m176 -138 c15 -28 4 -69 -18 -69 -40 0 -58 59 -24 79 25 15 30 14 42
-10z m-172 -1 c19 -19 15 -58 -6 -58 -25 0 -56 35 -49 55 8 18 38 20 55 3z
m292 -57 c5 -11 10 -27 10 -36 0 -20 -42 -37 -52 -21 -12 18 -9 64 5 69 21 9
26 7 37 -12z m-426 -50 c43 -47 -11 -82 -54 -36 -24 26 -25 27 -6 41 26 19 40
18 60 -5z m324 -94 c2 -18 -2 -29 -13 -34 -20 -7 -35 12 -35 45 0 19 5 23 23
20 16 -2 23 -11 25 -31z m-152 -3 c15 -22 15 -27 2 -40 -19 -19 -47 -8 -54 22
-12 47 25 61 52 18z m-207 -38 c25 -30 -10 -57 -53 -40 -16 6 -22 35 -9 47 11
12 50 8 62 -7z m409 -78 c16 -16 15 -55 -2 -61 -18 -7 -36 12 -36 38 0 35 17
44 38 23z m-287 -19 c8 -17 8 -24 -3 -36 -13 -12 -18 -11 -38 5 -15 12 -21 25
-17 35 9 24 44 21 58 -4z m139 -24 c16 -19 9 -49 -12 -53 -19 -4 -53 42 -43
58 9 15 41 12 55 -5z m-82 -127 c19 -19 15 -48 -6 -48 -23 0 -56 35 -47 49 8
15 38 14 53 -1z m200 -30 c17 -17 15 -45 -3 -52 -18 -6 -55 27 -55 49 0 18 41
20 58 3z"/>
<path d="M3176 2259 c-174 -115 -322 -154 -546 -146 -159 6 -222 19 -336 71
-45 21 -93 35 -135 39 l-64 5 25 -20 c46 -38 204 -108 305 -134 84 -22 122
-27 240 -27 156 -1 259 19 386 72 76 32 205 109 231 138 15 17 15 20 -1 39
l-17 21 -88 -58z"/>
<path d="M6580 2305 c-9 -11 -23 -13 -50 -9 -54 9 -135 -13 -169 -45 -67 -62
-62 -195 10 -262 48 -47 125 -73 190 -66 117 14 189 89 189 196 0 42 -5 56
-32 86 -17 20 -49 45 -70 56 -31 16 -37 23 -28 33 8 10 7 15 -6 20 -21 8 -20
8 -34 -9z"/>
<path d="M5950 2208 c-1 -120 -64 -286 -155 -407 -102 -134 -284 -249 -440
-276 -225 -39 -276 -49 -281 -57 -9 -15 224 -9 298 8 159 36 282 105 399 223
130 131 213 306 226 473 l6 78 -27 0 c-24 0 -26 -3 -26 -42z"/>
<path d="M7028 2059 l-31 -30 -48 20 c-134 58 -249 -14 -249 -155 0 -65 10
-92 51 -138 49 -56 102 -80 179 -81 51 0 73 5 103 24 108 67 117 197 19 285
l-21 19 25 43 c30 51 16 58 -28 13z"/>
<path d="M3495 1696 c-74 -44 -106 -132 -81 -219 50 -173 290 -184 360 -16 20
48 28 177 12 186 -7 5 -16 16 -19 27 -5 13 -14 17 -28 13 -12 -3 -35 3 -52 14
-48 28 -140 26 -192 -5z"/>
<path d="M4044 1655 c-4 -8 -18 -15 -33 -15 -216 -1 -277 -292 -79 -375 126
-52 268 49 268 192 0 17 -11 51 -25 77 -14 26 -25 51 -25 56 0 16 -49 62 -59
55 -6 -3 -11 -2 -11 3 0 17 -30 22 -36 7z"/>
<path d="M6356 1615 c10 -24 -16 -47 -44 -40 -15 4 -21 2 -17 -5 3 -5 20 -10
36 -10 22 0 32 6 38 23 9 24 4 47 -10 47 -4 0 -6 -7 -3 -15z"/>
<path d="M3744 1306 c-3 -8 -13 -12 -25 -9 -15 4 -19 0 -19 -19 0 -14 -10 -33
-21 -44 -31 -27 -59 -93 -59 -139 0 -115 109 -209 219 -190 111 19 179 123
157 240 -10 50 -79 120 -133 134 -24 7 -43 17 -43 23 0 5 -9 8 -20 5 -11 -3
-23 -1 -26 4 -8 13 -24 11 -30 -5z"/>
</g>
</svg>
